# xmcd
#
# Track frame offsets:
#	150
#	13173
#	27581
#	43364
#	57120
#	70858
#	91091
#	107707
#	121509
#	135989
#
# Disc length: 1987 seconds
#
# Revision: 0
# Processed by: cddbd v1.5.2PL0 Copyright (c) Steve Scherf et al.
# Submitted via: dBpowerAMP V4.0
#
DISCID=7e07c10a
DTITLE=Pam MacBeth - Forever one day at a time
DYEAR=1900
DGENRE=Country
TTITLE0=Spinning my wheels
TTITLE1=Dim lights, thick smoke and loud loud music
TTITLE2=Touch me here
TTITLE3=These boots are made for walking
TTITLE4=Forever one day at a time
TTITLE5=Let me lean on you awhile
TTITLE6=Love is falling down on us
TTITLE7=That's what a woman's made of
TTITLE8=Get ready to ride
TTITLE9=Your good girl is gonna go bad
EXTD=
EXTT0=
EXTT1=
EXTT2=
EXTT3=
EXTT4=
EXTT5=
EXTT6=
EXTT7=
EXTT8=
EXTT9=
PLAYORDER=
